#!OML:ASF C:\ViconDB\ViconDB\414\Spring2016\041811\Spring2016.ASF
:FULLY-SPECIFIED
:DEGREES
226
root 10.5964 17.7566 8.49181 -174.722 -12.5085 -181.085
lowerback -2.21489 -1.26321 2.725
upperback 1.08818 -1.83335 1.29359
thorax 2.31675 -0.896947 -0.275208
lowerneck -12.2692 -0.594173 -7.64555
upperneck 22.6477 -3.11025 11.7199
head 9.40585 -1.29871 4.95958
rclavicle 3.8763e-014 -4.21423e-014
rhumerus -85.2821 25.2985 -109.718
rradius 93.573
rwrist 39.7916
rhand -48.4565 0.86755
rfingers 7.12502
rthumb -21.1069 -28.0036
lclavicle 3.8763e-014 -4.21423e-014
lhumerus -86.7791 -39.9221 115.89
lradius 77.957
lwrist -33.332
lhand -48.5743 2.14063
lfingers 7.12502
lthumb -21.2201 30.9991
rfemur 228.529 53.9297 -126.9
rtibia 23.9843
rfoot -63.7557 -50.4266
rtoes -1.05356e-014
lfemur 9.70141 -6.77958 -22.0833
ltibia 10.1422
lfoot -24.2639 -7.39612
ltoes -5.13858e-014
227
root 10.5824 17.7137 8.36585 -174.681 -12.047 -181.513
lowerback -2.45216 -1.17518 2.49359
upperback 1.16179 -1.72204 1.36103
thorax 2.53725 -0.843286 -0.0789917
lowerneck -12.4118 -0.541212 -7.79356
upperneck 22.7249 -2.8234 11.1874
head 9.42279 -1.21203 4.83315
rclavicle 1.82882e-014 -6.36111e-015
rhumerus -84.993 25.4987 -109.794
rradius 93.5589
rwrist 39.8924
rhand -48.304 0.831188
rfingers 7.12502
rthumb -20.9605 -28.0563
lclavicle 1.82882e-014 -6.36111e-015
lhumerus -86.6626 -40.1794 116.024
lradius 77.9001
lwrist -33.1772
lhand -48.9405 2.63505
lfingers 7.12502
lthumb -21.5719 31.4536
rfemur 227.975 53.2733 -128
rtibia 23.9746
rfoot -61.2887 -50.3733
rtoes -3.4191e-014
lfemur 10.6702 -6.29655 -22.5209
ltibia 9.30627
lfoot -24.1003 -7.62427
ltoes -9.24349e-015
228
root 10.5733 17.6633 8.23906 -174.661 -11.6479 -182.129
lowerback -2.49166 -1.11337 2.25989
upperback 1.15444 -1.62324 1.21962
thorax 2.55561 -0.794092 -0.0897989
lowerneck -12.305 -0.484425 -7.8369
upperneck 22.7025 -2.5945 10.7144
head 9.36463 -1.15169 4.69714
rclavicle 3.55825e-014 1.82882e-014
rhumerus -84.8575 25.5642 -110.109
rradius 93.6052
rwrist 39.6678
rhand -47.9802 1.56314
rfingers 7.12502
rthumb -20.6494 -27.3584
lclavicle 3.55825e-014 1.82882e-014
lhumerus -86.7282 -40.4874 116.063
lradius 77.8234
lwrist -32.986
lhand -48.9375 2.62783
lfingers 7.12502
lthumb -21.569 31.4467
rfemur 227.344 52.7241 -129.272
rtibia 24.0341
rfoot -59.2439 -50.4628
rtoes -7.95139e-016
lfemur 11.7149 -5.88608 -23.1659
ltibia 8.45946
lfoot -23.9408 -7.83726
ltoes -1.28614e-013
229
root 10.572 17.6135 8.11102 -174.626 -11.2877 -182.536
lowerback -2.53548 -1.05583 2.10647
upperback 1.13649 -1.54008 1.20358
thorax 2.56658 -0.754392 -0.0174326
lowerneck -12.3136 -0.423692 -7.94664
upperneck 22.723 -2.34455 10.2629
head 9.34362 -1.08094 4.58568
rclavicle 5.36719e-015 1.59028e-015
rhumerus -84.7146 25.6337 -110.376
rradius 93.4566
rwrist 40.2948
rhand -48.1383 0.551505
rfingers 7.12502
rthumb -20.8013 -28.3535
lclavicle 5.36719e-015 1.59028e-015
lhumerus -86.7357 -40.7585 116.227
lradius 77.7753
lwrist -32.6536
lhand -48.9911 2.90631
lfingers 7.12502
lthumb -21.6204 31.7193
rfemur 224.812 51.2335 -132.67
rtibia 24.1073
rfoot -54.8228 -50.7532
rtoes -4.01545e-014
lfemur 12.5554 -5.52048 -23.4835
ltibia 7.79656
lfoot -23.6557 -8.3069
ltoes -1.32142e-013
230
root 10.5727 17.5567 7.97678 -174.649 -10.9715 -183.019
lowerback -2.5113 -1.01238 1.83808
upperback 1.12379 -1.46782 1.16149
thorax 2.54621 -0.7216 0.0934477
lowerneck -12.347 -0.364451 -7.98208
upperneck 22.8007 -2.12645 9.81106
head 9.35131 -1.02212 4.45915
rclavicle 3.25013e-014 -3.02153e-014
rhumerus -84.6257 25.8035 -110.622
rradius 93.4936
rwrist 39.9994
rhand -47.7726 0.723561
rfingers 7.12502
rthumb -20.4499 -28.2195
lclavicle 3.25013e-014 -3.02153e-014
lhumerus -86.7552 -41.0666 116.307
lradius 77.6922
lwrist -32.6577
lhand -49.1198 2.83116
lfingers 7.12502
lthumb -21.7441 31.6299
rfemur 221.717 49.4265 -136.796
rtibia 24.1922
rfoot -49.883 -51.1422
rtoes 9.14409e-015
lfemur 13.2799 -5.19048 -23.9354
ltibia 7.55436
lfoot -23.7071 -8.63377
ltoes -9.97899e-014
231
root 10.5746 17.4945 7.84004 -174.598 -10.6605 -183.51
lowerback -2.54194 -0.971703 1.62914
upperback 1.07931 -1.39918 1.05558
thorax 2.52046 -0.68844 0.104755
lowerneck -12.3308 -0.303997 -7.96263
upperneck 22.8338 -1.94822 9.45179
head 9.3393 -0.971262 4.34959
rclavicle 4.14466e-014 -2.14687e-014
rhumerus -84.4818 25.7364 -111.003
rradius 93.3492
rwrist 39.7926
rhand -47.5778 0.70141
rfingers 7.12502
rthumb -20.2627 -28.2617
lclavicle 4.14466e-014 -2.14687e-014
lhumerus -86.6953 -41.2625 116.254
lradius 77.65
lwrist -32.607
lhand -49.1251 2.5668
lfingers 7.12502
lthumb -21.7492 31.3649
rfemur 219.153 47.5732 -140.349
rtibia 24.2878
rfoot -45.9843 -51.2616
rtoes 6.71892e-014
lfemur 13.6818 -4.8694 -24.3973
ltibia 7.82219
lfoot -23.9854 -8.95851
ltoes -2.24328e-013
232
root 10.5807 17.4271 7.69992 -174.597 -10.4464 -183.995
lowerback -2.5169 -1.00522 1.28937
upperback 1.06829 -1.42957 1.05962
thorax 2.50287 -0.708666 0.298229
lowerneck -12.4789 -0.23115 -8.10209
upperneck 22.9924 -1.709 9.07962
head 9.39816 -0.904301 4.27519
rclavicle 2.127e-014 -2.06736e-014
rhumerus -84.3034 25.9458 -111.188
rradius 93.1549
rwrist 39.358
rhand -47.3841 0.684934
rfingers 7.12502
rthumb -20.0765 -28.2978
lclavicle 2.127e-014 -2.06736e-014
lhumerus -86.4252 -41.2267 116.159
lradius 77.5339
lwrist -32.6639
lhand -49.0136 2.27686
lfingers 7.12502
lthumb -21.6421 31.0873
rfemur 216.453 45.5701 -143.948
rtibia 24.4747
rfoot -41.6585 -51.6622
rtoes 7.95139e-015
lfemur 13.9297 -4.6433 -24.8346
ltibia 8.46776
lfoot -24.2778 -9.29285
ltoes -1.22849e-013
233
root 10.5901 17.3561 7.55499 -174.557 -10.3269 -184.5
lowerback -2.51161 -0.988031 1.05211
upperback 0.999839 -1.39014 0.943113
thorax 2.43214 -0.690475 0.314199
lowerneck -12.4817 -0.213203 -8.15378
upperneck 23.1145 -1.62085 8.83114
head 9.43209 -0.896217 4.20921
rclavicle 1.09332e-015 -2.62396e-014
rhumerus -84.1445 25.7838 -111.348
rradius 92.9624
rwrist 39.1386
rhand -47.3749 0.319941
rfingers 7.12502
rthumb -20.0677 -28.6637
lclavicle 1.09332e-015 -2.62396e-014
lhumerus -86.4662 -41.3738 116.207
lradius 77.5461
lwrist -32.7486
lhand -49.0241 1.9505
lfingers 7.12502
lthumb -21.6522 30.7598
rfemur 213.882 43.5767 -147.313
rtibia 24.8106
rfoot -37.7701 -52.2646
rtoes 3.06128e-014
lfemur 14.0899 -4.51771 -25.2715
ltibia 9.22635
lfoot -24.6649 -9.62536
ltoes -1.26228e-013
234
root 10.6027 17.2762 7.40619 -174.567 -10.298 -184.974
lowerback -2.44184 -1.04228 0.763798
upperback 0.950198 -1.44867 0.927473
thorax 2.34838 -0.723591 0.458839
lowerneck -12.621 -0.170173 -8.33511
upperneck 23.3326 -1.46199 8.58677
head 9.5199 -0.864463 4.17916
rclavicle -5.76476e-015 4.45278e-014
rhumerus -84.0525 25.8581 -111.341
rradius 92.8558
rwrist 38.981
rhand -47.5867 0.0753811
rfingers 7.12502
rthumb -20.2712 -28.8868
lclavicle -5.76476e-015 4.45278e-014
lhumerus -86.3006 -41.3964 116.241
lradius 77.6083
lwrist -32.3449
lhand -48.6342 0.982935
lfingers 7.12502
lthumb -21.2777 29.8349
rfemur 211.668 41.8888 -149.993
rtibia 25.2343
rfoot -34.2217 -53.0445
rtoes -1.10922e-013
lfemur 14.2513 -4.47736 -25.6607
ltibia 10.1459
lfoot -25.1992 -9.90556
ltoes 5.68524e-014
235
root 10.6202 17.1948 7.25011 -174.628 -10.2931 -185.436
lowerback -2.32618 -1.11031 0.492528
upperback 0.895453 -1.52345 0.833262
thorax 2.23174 -0.763242 0.513917
lowerneck -12.6626 -0.111618 -8.264
upperneck 23.4826 -1.31681 8.23241
head 9.56566 -0.831517 4.06159
rclavicle -2.31584e-014 -9.54166e-015
rhumerus -83.924 25.7459 -111.356
rradius 92.7035
rwrist 39.038
rhand -47.6435 0.268254
rfingers 7.12502
rthumb -20.3258 -28.6881
lclavicle -2.31584e-014 -9.54166e-015
lhumerus -86.3238 -41.3526 116.244
lradius 77.582
lwrist -32.8516
lhand -48.7368 1.25897
lfingers 7.12502
lthumb -21.3762 30.0998
rfemur 209.904 41.2805 -151.506
rtibia 25.8589
rfoot -32.734 -54.353
rtoes 8.15017e-014
lfemur 14.6214 -4.23531 -25.9974
ltibia 10.8594
lfoot -25.656 -10.0816
ltoes -4.13472e-014
236
root 10.6355 17.1253 7.08949 -174.611 -10.387 -185.704
lowerback -2.3209 -1.22374 0.39053
upperback 0.794212 -1.66995 0.851481
thorax 2.12914 -0.837662 0.584958
lowerneck -12.7322 -0.0220812 -8.25705
upperneck 23.6801 -1.11481 7.87737
head 9.62923 -0.779801 3.96284
rclavicle 5.33737e-014 -4.37326e-014
rhumerus -83.8505 25.7291 -111.3
rradius 92.6723
rwrist 39.1281
rhand -47.5929 0.235542
rfingers 7.12502
rthumb -20.2772 -28.726
lclavicle 5.33737e-014 -4.37326e-014
lhumerus -86.1772 -41.2208 116.255
lradius 77.4363
lwrist -33.0516
lhand -48.693 0.725201
lfingers 7.12502
lthumb -21.3341 29.5708
rfemur 208.184 40.7132 -152.658
rtibia 26.5877
rfoot -31.1071 -55.7226
rtoes 6.63444e-015
lfemur 14.9512 -5.05349 -26.2869
ltibia 11.4237
lfoot -25.8428 -10.2479
ltoes -1.29608e-013
237
root 10.655 17.0593 6.9211 -174.639 -10.5676 -186.031
lowerback -2.33564 -1.35043 0.168333
upperback 0.766256 -1.83183 0.878291
thorax 2.11788 -0.921388 0.730049
lowerneck -13.0786 0.0388049 -8.39495
upperneck 24.0684 -0.940587 7.64866
head 9.81775 -0.740281 3.9386
rclavicle 2.08724e-015 3.33958e-014
rhumerus -83.6767 25.6679 -111.063
rradius 92.7196
rwrist 39.2615
rhand -47.6128 0.125773
rfingers 7.12502
rthumb -20.2963 -28.8337
lclavicle 2.08724e-015 3.33958e-014
lhumerus -86.0012 -41.1697 116.329
lradius 77.3141
lwrist -33.5224
lhand -48.6002 0.601574
lfingers 7.12502
lthumb -21.245 29.4573
rfemur 206.017 39.7742 -154.392
rtibia 27.3961
rfoot -29.5914 -56.5931
rtoes 7.62836e-014
lfemur 15.5202 -4.9974 -26.4013
ltibia 11.7007
lfoot -25.9268 -10.6326
ltoes -2.38542e-015
238
root 10.6726 17.0005 6.74486 -174.68 -10.6585 -186.194
lowerback -2.3873 -1.44788 0.116938
upperback 0.668878 -1.9604 0.92165
thorax 2.05178 -0.986318 0.797972
lowerneck -13.1451 0.132504 -8.24927
upperneck 24.3531 -0.753414 7.18918
head 9.91533 -0.702938 3.77809
rclavicle -4.68138e-014 1.27222e-014
rhumerus -83.6419 25.5146 -110.875
rradius 92.8999
rwrist 39.3587
rhand -47.2867 0.365386
rfingers 7.12502
rthumb -19.9828 -28.6271
lclavicle -4.68138e-014 1.27222e-014
lhumerus -86.0405 -40.9498 116.585
lradius 77.1256
lwrist -33.6516
lhand -48.548 0.213951
lfingers 7.12502
lthumb -21.1949 29.0753
rfemur 204.04 38.8031 -155.682
rtibia 28.1743
rfoot -29.3049 -57.9444
rtoes 7.31528e-014
lfemur 16.1201 -5.06695 -26.439
ltibia 11.909
lfoot -26.0347 -10.6108
ltoes 7.15625e-014
